<svg id="Layer_3" data-name="Layer 3" xmlns="http://www.w3.org/2000/svg" viewBox="0 0 1000 785"><defs><style>.cls-1{fill:#fff;}.cls-2{fill:#6bb445;fill-rule:evenodd;}</style></defs><title>chb-logo&amp;amp;tag-white&amp;amp;green</title><polygon class="cls-1" points="367.59 340.27 367.59 246.3 188.2 246.3 188.2 459.86 367.59 459.86 367.59 365.89 273.62 365.89 273.62 340.27 367.59 340.27"/><polygon class="cls-1" points="709.29 246.3 709.29 126.16 632.41 126.16 632.41 340.27 726.38 340.27 726.38 365.89 632.41 365.89 632.41 459.86 811.8 459.86 811.8 246.3 709.29 246.3"/><polygon class="cls-1" points="939.94 126.16 743.46 126.16 743.46 203.58 863.06 203.58 863.06 502.57 136.94 502.57 136.94 203.58 367.59 203.58 367.59 126.16 60.06 126.16 60.06 579.45 939.94 579.45 939.94 126.16"/><polygon class="cls-1" points="401.76 459.86 489.68 459.86 489.68 331.72 515.3 331.72 515.3 459.86 598.24 459.86 598.24 246.3 478.64 246.3 478.64 126.16 401.76 126.16 401.76 459.86"/><polygon class="cls-2" points="555.55 106 574.22 143.88 616.04 149.96 585.81 179.45 592.91 221.06 555.55 201.44 518.16 221.06 525.28 179.45 495.01 149.96 536.82 143.88 555.55 106"/><path class="cls-1" d="M101.66,689.37a16.79,16.79,0,0,1-3.59,5.34,17,17,0,0,1-5.33,3.59,16.42,16.42,0,0,1-6.51,1.3H81.67a16.33,16.33,0,0,1-6.5-1.3,16.73,16.73,0,0,1-8.93-8.93,16.41,16.41,0,0,1-1.31-6.5V657.18a16.42,16.42,0,0,1,1.31-6.51,16.67,16.67,0,0,1,8.93-8.92,16.34,16.34,0,0,1,6.5-1.31h4.56a16.42,16.42,0,0,1,6.51,1.31,16.69,16.69,0,0,1,8.92,8.92,16.42,16.42,0,0,1,1.31,6.51v2.28l-6.84,1.11v-3.78a9.7,9.7,0,0,0-.78-3.87,9.8,9.8,0,0,0-5.26-5.25,9.61,9.61,0,0,0-3.86-.78H81.67a9.61,9.61,0,0,0-3.86.78,9.8,9.8,0,0,0-3.14,2.11,10.05,10.05,0,0,0-2.12,3.14,9.7,9.7,0,0,0-.78,3.87v26.46a9.66,9.66,0,0,0,.78,3.87,10.05,10.05,0,0,0,2.12,3.14,9.8,9.8,0,0,0,3.14,2.11,9.61,9.61,0,0,0,3.86.78h4.56a9.61,9.61,0,0,0,3.86-.78,9.8,9.8,0,0,0,5.26-5.25,9.66,9.66,0,0,0,.78-3.87v-3.78l6.84,1.12v2.28A16.41,16.41,0,0,1,101.66,689.37Z"/><path class="cls-1" d="M152.4,698.49l-3.78-5.67a17.75,17.75,0,0,1-5.84,4.92,16.11,16.11,0,0,1-7.67,1.86h-1.73a16.33,16.33,0,0,1-6.5-1.3,16.73,16.73,0,0,1-8.93-8.93,16.4,16.4,0,0,1-1.3-6.5v-.56a16.42,16.42,0,0,1,1.3-6.51,16.76,16.76,0,0,1,8.93-8.92,16.34,16.34,0,0,1,6.5-1.31h14.46v-8.78a9.7,9.7,0,0,0-.78-3.87,9.83,9.83,0,0,0-5.25-5.25,9.7,9.7,0,0,0-3.87-.78h-4a9.7,9.7,0,0,0-3.87.78,9.83,9.83,0,0,0-5.25,5.25,9.7,9.7,0,0,0-.78,3.87v2.05l-6.84-1.11v-.55a16.42,16.42,0,0,1,1.31-6.51,16.61,16.61,0,0,1,8.92-8.92,16.42,16.42,0,0,1,6.51-1.31h4a16.42,16.42,0,0,1,6.51,1.31,16.69,16.69,0,0,1,8.92,8.92,16.42,16.42,0,0,1,1.31,6.51v41.31Zm-4.56-27.58H133.38a9.77,9.77,0,0,0-7,2.92,10.31,10.31,0,0,0-2.12,3.17,9.61,9.61,0,0,0-.78,3.86v2.39a9.66,9.66,0,0,0,.78,3.87,10.05,10.05,0,0,0,2.12,3.14,9.91,9.91,0,0,0,3.14,2.11,9.61,9.61,0,0,0,3.86.78h4.56a9.7,9.7,0,0,0,3.87-.78,9.83,9.83,0,0,0,5.25-5.25,9.66,9.66,0,0,0,.78-3.87Z"/><path class="cls-1" d="M207.5,684a14.21,14.21,0,0,1-1.39,6.31,15.21,15.21,0,0,1-3.78,4.92,17.43,17.43,0,0,1-5.53,3.2,19.19,19.19,0,0,1-6.59,1.14h-4.56a17,17,0,0,1-6.59-1.3,17.58,17.58,0,0,1-9.29-8.93,15.36,15.36,0,0,1-1.41-6.5v-2.28l6.84-1.12v3.78a8.8,8.8,0,0,0,.86,3.87,10.24,10.24,0,0,0,2.3,3.14,11.21,11.21,0,0,0,3.34,2.11,10.27,10.27,0,0,0,4,.78h4.56a12.7,12.7,0,0,0,3.95-.61,11,11,0,0,0,3.36-1.75,8.53,8.53,0,0,0,2.33-2.75,7.62,7.62,0,0,0,.87-3.67,8.69,8.69,0,0,0-1.34-5,11.06,11.06,0,0,0-3.53-3.25,23.12,23.12,0,0,0-5-2.17c-1.87-.57-3.79-1.15-5.76-1.72s-3.88-1.23-5.75-2a18.56,18.56,0,0,1-5-2.92,13.39,13.39,0,0,1-3.53-4.53,15.31,15.31,0,0,1-1.33-6.78,14.74,14.74,0,0,1,1.33-6.31,15.18,15.18,0,0,1,3.62-4.92,16.56,16.56,0,0,1,5.31-3.2,18.23,18.23,0,0,1,6.47-1.14h4a16.38,16.38,0,0,1,6.5,1.31,16.67,16.67,0,0,1,8.93,8.92,16.42,16.42,0,0,1,1.3,6.51v.22l-6.83,1.11v-1.72a9.7,9.7,0,0,0-.78-3.87,10.05,10.05,0,0,0-2.12-3.14,9.91,9.91,0,0,0-3.14-2.11,9.61,9.61,0,0,0-3.86-.78h-4a11.87,11.87,0,0,0-3.86.61,9.51,9.51,0,0,0-3.14,1.75,8.2,8.2,0,0,0-2.11,2.76,8.28,8.28,0,0,0-.78,3.67,8.09,8.09,0,0,0,1.33,4.81,11.34,11.34,0,0,0,3.53,3.14,24.45,24.45,0,0,0,5,2.14c1.87.57,3.78,1.17,5.72,1.78s3.86,1.3,5.73,2.08a19.37,19.37,0,0,1,5,3,13.72,13.72,0,0,1,3.54,4.59A15.57,15.57,0,0,1,207.5,684Z"/><path class="cls-1" d="M241.36,698.49a14.81,14.81,0,0,1-5.86-1.17,14.65,14.65,0,0,1-4.78-3.22,15.75,15.75,0,0,1-3.23-4.78,14.36,14.36,0,0,1-1.2-5.84V648.06H216.06v-6.51h10.23V627.87l6.84-1.11v14.79h14.46v6.51H233.13v35.75a8.05,8.05,0,0,0,.64,3.2,8.35,8.35,0,0,0,1.75,2.58,8.24,8.24,0,0,0,5.84,2.39h6.23v6.51Z"/><path class="cls-1" d="M262.44,698.49V618.76h6.84v79.73Z"/><path class="cls-1" d="M322,689.37a16.79,16.79,0,0,1-3.59,5.34A17,17,0,0,1,313,698.3a16.42,16.42,0,0,1-6.51,1.3H302a16.42,16.42,0,0,1-6.51-1.3,17,17,0,0,1-5.33-3.59,16.79,16.79,0,0,1-3.59-5.34,16.41,16.41,0,0,1-1.31-6.5V657.18a16.42,16.42,0,0,1,1.31-6.51,16.69,16.69,0,0,1,8.92-8.92,16.42,16.42,0,0,1,6.51-1.31h4.56a16.42,16.42,0,0,1,6.51,1.31,16.69,16.69,0,0,1,8.92,8.92,16.42,16.42,0,0,1,1.31,6.51v13.4h-31.2v12.67a9.66,9.66,0,0,0,.78,3.87,9.8,9.8,0,0,0,5.26,5.25,9.61,9.61,0,0,0,3.86.78h4.56a9.61,9.61,0,0,0,3.86-.78,9.8,9.8,0,0,0,5.26-5.25,9.66,9.66,0,0,0,.78-3.87v-3.78l6.84,1.12v2.28A16.41,16.41,0,0,1,322,689.37Zm-5.53-32.58a9.7,9.7,0,0,0-.78-3.87,9.8,9.8,0,0,0-5.26-5.25,9.61,9.61,0,0,0-3.86-.78H302a9.61,9.61,0,0,0-3.86.78,9.8,9.8,0,0,0-5.26,5.25,9.7,9.7,0,0,0-.78,3.87v8.45h24.36Z"/><path class="cls-1" d="M368.14,698.49v-41.7a9.7,9.7,0,0,0-.78-3.87,9.8,9.8,0,0,0-5.26-5.25,9.61,9.61,0,0,0-3.86-.78h-4.56a9.61,9.61,0,0,0-3.86.78,10,10,0,0,0-3.15,2.11,10.2,10.2,0,0,0-2.11,3.14,9.7,9.7,0,0,0-.78,3.87v41.7h-6.84V618.76h6.84v27.57A16.54,16.54,0,0,1,349.4,642a16.37,16.37,0,0,1,7.12-1.56h1.72a16.42,16.42,0,0,1,6.51,1.31,16.69,16.69,0,0,1,8.92,8.92,16.42,16.42,0,0,1,1.31,6.51v41.31Z"/><path class="cls-1" d="M390.38,627.87v-9.11h7.95v9.11Zm.55,70.62V641.55h6.84v56.94Z"/><path class="cls-1" d="M416,698.49V618.76h6.84v79.73Z"/><path class="cls-1" d="M441.09,698.49V618.76h6.84v79.73Z"/><path class="cls-1" d="M500.61,689.37a16.67,16.67,0,0,1-8.92,8.93,16.42,16.42,0,0,1-6.51,1.3h-4.56a16.33,16.33,0,0,1-6.5-1.3,16.73,16.73,0,0,1-8.93-8.93,16.4,16.4,0,0,1-1.3-6.5V618.76h6.84v27.57a16.41,16.41,0,0,1,12.73-5.89h1.72a16.42,16.42,0,0,1,6.51,1.31,16.61,16.61,0,0,1,8.92,8.92,16.42,16.42,0,0,1,1.31,6.51v25.69A16.41,16.41,0,0,1,500.61,689.37Zm-5.53-32.58a9.7,9.7,0,0,0-.78-3.87,9.83,9.83,0,0,0-5.25-5.25,9.7,9.7,0,0,0-3.87-.78h-4.56a9.61,9.61,0,0,0-3.86.78,9.91,9.91,0,0,0-3.14,2.11,10.05,10.05,0,0,0-2.12,3.14,9.69,9.69,0,0,0-.77,3.87v26.46a9.66,9.66,0,0,0,.77,3.87,10.05,10.05,0,0,0,2.12,3.14,9.91,9.91,0,0,0,3.14,2.11,9.61,9.61,0,0,0,3.86.78h4.56a9.7,9.7,0,0,0,3.87-.78,9.83,9.83,0,0,0,5.25-5.25,9.66,9.66,0,0,0,.78-3.87Z"/><path class="cls-1" d="M551.35,698.49l-3.78-5.67a17.65,17.65,0,0,1-5.84,4.92,16.11,16.11,0,0,1-7.67,1.86h-1.73a16.37,16.37,0,0,1-6.5-1.3,16.73,16.73,0,0,1-8.93-8.93,16.4,16.4,0,0,1-1.3-6.5v-.56a16.42,16.42,0,0,1,1.3-6.51,16.76,16.76,0,0,1,8.93-8.92,16.38,16.38,0,0,1,6.5-1.31h14.46v-8.78a9.7,9.7,0,0,0-.78-3.87,9.83,9.83,0,0,0-5.25-5.25,9.7,9.7,0,0,0-3.87-.78h-4a9.61,9.61,0,0,0-3.86.78,9.8,9.8,0,0,0-5.26,5.25,9.7,9.7,0,0,0-.78,3.87v2.05l-6.84-1.11v-.55a16.42,16.42,0,0,1,1.31-6.51,16.69,16.69,0,0,1,8.92-8.92,16.42,16.42,0,0,1,6.51-1.31h4a16.42,16.42,0,0,1,6.51,1.31,16.61,16.61,0,0,1,8.92,8.92,16.42,16.42,0,0,1,1.31,6.51v41.31Zm-4.56-27.58H532.33a9.77,9.77,0,0,0-7,2.92,10.31,10.31,0,0,0-2.12,3.17,9.61,9.61,0,0,0-.77,3.86v2.39a9.66,9.66,0,0,0,.77,3.87,10.05,10.05,0,0,0,2.12,3.14,9.91,9.91,0,0,0,3.14,2.11,9.61,9.61,0,0,0,3.86.78h4.56a9.7,9.7,0,0,0,3.87-.78,9.83,9.83,0,0,0,5.25-5.25,9.66,9.66,0,0,0,.78-3.87Z"/><path class="cls-1" d="M606.45,684a14.21,14.21,0,0,1-1.39,6.31,15.21,15.21,0,0,1-3.78,4.92,17.43,17.43,0,0,1-5.53,3.2,19.19,19.19,0,0,1-6.59,1.14H584.6a17,17,0,0,1-6.59-1.3,17.68,17.68,0,0,1-5.5-3.59,17.49,17.49,0,0,1-3.78-5.34,15.22,15.22,0,0,1-1.42-6.5v-2.28l6.84-1.12v3.78a8.8,8.8,0,0,0,.86,3.87,10.11,10.11,0,0,0,2.31,3.14,11,11,0,0,0,3.33,2.11,10.27,10.27,0,0,0,4,.78h4.56a12.7,12.7,0,0,0,4-.61,11,11,0,0,0,3.36-1.75,8.69,8.69,0,0,0,2.34-2.75,7.73,7.73,0,0,0,.86-3.67,8.69,8.69,0,0,0-1.34-5,11.06,11.06,0,0,0-3.53-3.25,23.12,23.12,0,0,0-5-2.17c-1.87-.57-3.79-1.15-5.76-1.72s-3.88-1.23-5.75-2a18.35,18.35,0,0,1-5-2.92,13.29,13.29,0,0,1-3.54-4.53,15.31,15.31,0,0,1-1.33-6.78,14.74,14.74,0,0,1,1.33-6.31,15.18,15.18,0,0,1,3.62-4.92,16.56,16.56,0,0,1,5.31-3.2,18.25,18.25,0,0,1,6.48-1.14h4a16.34,16.34,0,0,1,6.5,1.31,16.67,16.67,0,0,1,8.93,8.92,16.42,16.42,0,0,1,1.31,6.51v.22l-6.84,1.11v-1.72a9.7,9.7,0,0,0-.78-3.87,10.2,10.2,0,0,0-2.11-3.14,10,10,0,0,0-3.15-2.11,9.61,9.61,0,0,0-3.86-.78h-4a11.93,11.93,0,0,0-3.87.61,9.51,9.51,0,0,0-3.14,1.75,8.22,8.22,0,0,0-2.89,6.43,8.09,8.09,0,0,0,1.33,4.81,11.34,11.34,0,0,0,3.53,3.14,24.45,24.45,0,0,0,5,2.14c1.87.57,3.78,1.17,5.73,1.78s3.85,1.3,5.72,2.08a19.6,19.6,0,0,1,5,3,13.82,13.82,0,0,1,3.53,4.59A15.57,15.57,0,0,1,606.45,684Z"/><path class="cls-1" d="M621.3,627.87v-9.11h8v9.11Zm.55,70.62V641.55h6.84v56.94Z"/><path class="cls-1" d="M675.84,698.49v-41.7a9.86,9.86,0,0,0-.77-3.87,10.05,10.05,0,0,0-2.12-3.14,9.91,9.91,0,0,0-3.14-2.11,9.61,9.61,0,0,0-3.86-.78h-4.56a9.7,9.7,0,0,0-3.87.78,9.83,9.83,0,0,0-5.25,5.25,9.7,9.7,0,0,0-.78,3.87v41.7h-6.84V641.55h2.28l3.73,5.79a17,17,0,0,1,5.86-5,16.28,16.28,0,0,1,7.7-1.86H666a16.41,16.41,0,0,1,6.5,1.31,16.67,16.67,0,0,1,8.93,8.92,16.42,16.42,0,0,1,1.3,6.51v41.31Z"/><path class="cls-1" d="M697.47,698.49v-8.56H706v8.56Z"/><path class="cls-1" d="M757.55,689.37a16.76,16.76,0,0,1-3.58,5.34,17,17,0,0,1-5.34,3.59,16.42,16.42,0,0,1-6.51,1.3h-4.56a16.37,16.37,0,0,1-6.5-1.3,16.73,16.73,0,0,1-8.93-8.93,16.4,16.4,0,0,1-1.3-6.5V657.18a16.42,16.42,0,0,1,1.3-6.51,16.67,16.67,0,0,1,8.93-8.92,16.38,16.38,0,0,1,6.5-1.31h4.56a16.42,16.42,0,0,1,6.51,1.31,16.61,16.61,0,0,1,8.92,8.92,16.42,16.42,0,0,1,1.31,6.51v2.28L752,660.57v-3.78a9.7,9.7,0,0,0-.78-3.87,9.83,9.83,0,0,0-5.25-5.25,9.7,9.7,0,0,0-3.87-.78h-4.56a9.61,9.61,0,0,0-3.86.78,9.91,9.91,0,0,0-3.14,2.11,10.05,10.05,0,0,0-2.12,3.14,9.86,9.86,0,0,0-.77,3.87v26.46a9.83,9.83,0,0,0,.77,3.87,10.05,10.05,0,0,0,2.12,3.14,9.91,9.91,0,0,0,3.14,2.11,9.61,9.61,0,0,0,3.86.78h4.56a9.7,9.7,0,0,0,3.87-.78,9.83,9.83,0,0,0,5.25-5.25,9.66,9.66,0,0,0,.78-3.87v-3.78l6.84,1.12v2.28A16.41,16.41,0,0,1,757.55,689.37Z"/><path class="cls-1" d="M809.26,689.37a16.76,16.76,0,0,1-3.58,5.34,17,17,0,0,1-5.34,3.59,16.42,16.42,0,0,1-6.51,1.3h-4.56a16.4,16.4,0,0,1-6.5-1.3,17,17,0,0,1-5.34-3.59,16.76,16.76,0,0,1-3.58-5.34,16.24,16.24,0,0,1-1.31-6.5V657.18a16.25,16.25,0,0,1,1.31-6.51,16.61,16.61,0,0,1,8.92-8.92,16.41,16.41,0,0,1,6.5-1.31h4.56a16.42,16.42,0,0,1,6.51,1.31,16.61,16.61,0,0,1,8.92,8.92,16.42,16.42,0,0,1,1.31,6.51v25.69A16.41,16.41,0,0,1,809.26,689.37Zm-5.53-32.58a9.7,9.7,0,0,0-.78-3.87,9.83,9.83,0,0,0-5.25-5.25,9.7,9.7,0,0,0-3.87-.78h-4.56a9.61,9.61,0,0,0-3.86.78,10,10,0,0,0-3.14,2.11,9.86,9.86,0,0,0-2.11,3.14,9.7,9.7,0,0,0-.78,3.87v26.46a9.66,9.66,0,0,0,.78,3.87,9.86,9.86,0,0,0,2.11,3.14,10,10,0,0,0,3.14,2.11,9.61,9.61,0,0,0,3.86.78h4.56a9.7,9.7,0,0,0,3.87-.78,9.83,9.83,0,0,0,5.25-5.25,9.66,9.66,0,0,0,.78-3.87Z"/><path class="cls-1" d="M824.25,698.49v-8.56h8.56v8.56Z"/><path class="cls-1" d="M878.8,698.49v-41.7a9.7,9.7,0,0,0-.78-3.87,10.05,10.05,0,0,0-2.12-3.14,9.91,9.91,0,0,0-3.14-2.11,9.61,9.61,0,0,0-3.86-.78h-4.56a9.7,9.7,0,0,0-3.87.78,9.83,9.83,0,0,0-5.25,5.25,9.7,9.7,0,0,0-.78,3.87v41.7H847.6V641.55h2.28l3.73,5.79a17,17,0,0,1,5.86-5,16.28,16.28,0,0,1,7.7-1.86h1.73a16.38,16.38,0,0,1,6.5,1.31,16.67,16.67,0,0,1,8.93,8.92,16.42,16.42,0,0,1,1.3,6.51v41.31Z"/><path class="cls-1" d="M897,698.49v-3.06l28.69-47.37H898.14v-6.51h36.93v3.06L906.37,692h28.7v6.51Z"/></svg>